#!OML:ASF H:\ManfredETheater\Project 1\Capture day 1\Session 1\subject.ASF
:FULLY-SPECIFIED
:DEGREES
242
root 0.914507 17.7419 -16.0438 -168.157 -3.56625 -182.319
lowerback 3.55703 -0.617358 -3.68762
upperback -3.89714 -1.06925 1.72999
thorax -5.95863 -0.367982 3.97426
lowerneck -15.8653 -1.58005 -2.07134
upperneck 9.78079 -2.14988 3.40029
head 5.59893 -0.875492 1.20924
rclavicle -1.83876e-015 1.03368e-014
rhumerus -37.5127 -7.45888 -81.6511
rradius 33.3156
rwrist 6.26554
rhand -19.5777 -8.86781
rfingers 7.12502
rthumb 6.74745 -38.7403
lclavicle -1.83876e-015 1.03368e-014
lhumerus -35.5547 -1.03445 91.4778
lradius 44.6571
lwrist -3.32536
lhand -16.2612 6.74286
lfingers 7.12502
lthumb 9.9482 36.4878
rfemur -18.2213 0.563929 21.1811
rtibia 33.7885
rfoot -21.7891 -13.1194
rtoes -16.6715
lfemur -21.3657 -4.8278 -23.9284
ltibia 39.0705
lfoot -24.8473 -3.05808
ltoes 9.66386
243
root 0.91893 17.7381 -16.073 -168.025 -3.42602 -182.292
lowerback 3.57988 -0.623067 -3.62284
upperback -3.88963 -1.07212 1.75486
thorax -5.96384 -0.371641 3.96438
lowerneck -15.8925 -1.55177 -2.0359
upperneck 9.73552 -2.10843 3.33479
head 5.58671 -0.85871 1.18658
rclavicle -7.95139e-015 1.43125e-014
rhumerus -37.4528 -7.29444 -81.7302
rradius 33.5851
rwrist 6.09311
rhand -19.5808 -8.88496
rfingers 7.12502
rthumb 6.74453 -38.7575
lclavicle -7.95139e-015 1.43125e-014
lhumerus -35.5711 -1.216 91.6614
lradius 44.9196
lwrist -3.22797
lhand -16.3187 6.68869
lfingers 7.12502
lthumb 9.8927 36.4363
rfemur -18.2712 0.625109 21.2105
rtibia 33.7815
rfoot -21.8807 -13.0716
rtoes -16.7504
lfemur -21.4314 -4.76265 -23.8968
ltibia 39.1306
lfoot -24.9481 -2.95861
ltoes 9.48348
244
root 0.923446 17.734 -16.103 -167.897 -3.28291 -182.264
lowerback 3.60487 -0.625946 -3.56183
upperback -3.88035 -1.07134 1.78021
thorax -5.9687 -0.37331 3.95686
lowerneck -15.907 -1.52372 -2.00562
upperneck 9.67354 -2.06694 3.2756
head 5.56732 -0.841903 1.1668
rclavicle 1.07841e-014 0
rhumerus -37.398 -7.11747 -81.8162
rradius 33.8631
rwrist 5.90463
rhand -19.5762 -8.89989
rfingers 7.12502
rthumb 6.74896 -38.7723
lclavicle 1.07841e-014 0
lhumerus -35.5918 -1.39687 91.8474
lradius 45.1664
lwrist -3.14916
lhand -16.3905 6.63155
lfingers 7.12502
lthumb 9.82344 36.3824
rfemur -18.3156 0.71024 21.2408
rtibia 33.7766
rfoot -21.9739 -13.0491
rtoes -16.8009
lfemur -21.4896 -4.69219 -23.8632
ltibia 39.1905
lfoot -25.0569 -2.86927
ltoes 9.28326
245
root 0.928146 17.7294 -16.134 -167.77 -3.13627 -182.234
lowerback 3.63643 -0.626806 -3.50224
upperback -3.87287 -1.06817 1.80596
thorax -5.97947 -0.373576 3.95053
lowerneck -15.9092 -1.49608 -1.97312
upperneck 9.60318 -2.02663 3.2165
head 5.54331 -0.825774 1.14663
rclavicle -1.54058e-015 4.69132e-014
rhumerus -37.3524 -6.92596 -81.9116
rradius 34.1471
rwrist 5.70508
rhand -19.571 -8.90929
rfingers 7.12502
rthumb 6.75394 -38.7816
lclavicle -1.54058e-015 4.69132e-014
lhumerus -35.6221 -1.57515 92.0315
lradius 45.3931
lwrist -3.08583
lhand -16.4745 6.5619
lfingers 7.12502
lthumb 9.74237 36.3166
rfemur -18.3557 0.817378 21.2753
rtibia 33.7764
rfoot -22.0701 -13.0486
rtoes -16.8371
lfemur -21.5389 -4.61915 -23.8236
ltibia 39.2482
lfoot -25.1766 -2.78639
ltoes 9.06596
246
root 0.93307 17.7242 -16.1659 -167.646 -2.98528 -182.2
lowerback 3.66725 -0.625156 -3.44421
upperback -3.86208 -1.06153 1.8311
thorax -5.98663 -0.372142 3.94408
lowerneck -15.904 -1.47182 -1.94521
upperneck 9.52044 -1.99129 3.16759
head 5.51454 -0.811686 1.12998
rclavicle -7.50412e-015 2.06736e-014
rhumerus -37.3055 -6.72659 -82.0168
rradius 34.4312
rwrist 5.50494
rhand -19.569 -8.91288
rfingers 7.12502
rthumb 6.75587 -38.7851
lclavicle -7.50412e-015 2.06736e-014
lhumerus -35.6464 -1.7527 92.2125
lradius 45.5915
lwrist -3.0334
lhand -16.5679 6.47539
lfingers 7.12502
lthumb 9.65222 36.2343
rfemur -18.3933 0.939934 21.3137
rtibia 33.7841
rfoot -22.1713 -13.0636
rtoes -16.8717
lfemur -21.5782 -4.54431 -23.7784
ltibia 39.3021
lfoot -25.3135 -2.70604
ltoes 8.84443
247
root 0.938109 17.7183 -16.1989 -167.52 -2.83103 -182.162
lowerback 3.69565 -0.622089 -3.38621
upperback -3.85413 -1.05318 1.85493
thorax -5.99559 -0.369892 3.93613
lowerneck -15.8859 -1.44977 -1.91563
upperneck 9.43344 -1.96043 3.12507
head 5.48254 -0.799434 1.1147
rclavicle 1.85367e-014 -4.77083e-015
rhumerus -37.2671 -6.5189 -82.1317
rradius 34.7141
rwrist 5.31166
rhand -19.5723 -8.90877
rfingers 7.12502
rthumb 6.75271 -38.7811
lclavicle 1.85367e-014 -4.77083e-015
lhumerus -35.6764 -1.92832 92.3876
lradius 45.7633
lwrist -2.98846
lhand -16.6668 6.37652
lfingers 7.12502
lthumb 9.55681 36.1398
rfemur -18.4348 1.06599 21.3554
rtibia 33.8019
rfoot -22.2806 -13.0833
rtoes -16.9115
lfemur -21.6122 -4.46872 -23.7279
ltibia 39.3513
lfoot -25.4675 -2.6267
ltoes 8.61423
248
root 0.943224 17.7116 -16.2329 -167.389 -2.66851 -182.128
lowerback 3.7187 -0.615784 -3.33361
upperback -3.84751 -1.04093 1.87552
thorax -6.00322 -0.365606 3.92739
lowerneck -15.8611 -1.43031 -1.88861
upperneck 9.34594 -1.93429 3.09368
head 5.4496 -0.788865 1.10293
rclavicle -8.39865e-015 -7.15625e-015
rhumerus -37.2332 -6.30926 -82.2532
rradius 34.9943
rwrist 5.1358
rhand -19.5854 -8.90136
rfingers 7.12502
rthumb 6.74005 -38.7741
lclavicle -8.39865e-015 -7.15625e-015
lhumerus -35.7103 -2.10107 92.5579
lradius 45.9113
lwrist -2.94961
lhand -16.7664 6.25515
lfingers 7.12502
lthumb 9.46076 36.0228
rfemur -18.4841 1.19076 21.3928
rtibia 33.8339
rfoot -22.4002 -13.1008
rtoes -16.9741
lfemur -21.6416 -4.3923 -23.6807
ltibia 39.3947
lfoot -25.6419 -2.53948
ltoes 8.3718
249
root 0.94845 17.7041 -16.268 -167.252 -2.50066 -182.094
lowerback 3.73563 -0.608609 -3.28621
upperback -3.8433 -1.02792 1.89507
thorax -6.00992 -0.360815 3.92035
lowerneck -15.8336 -1.41156 -1.8541
upperneck 9.26144 -1.91024 3.05736
head 5.41713 -0.779405 1.08822
rclavicle -6.95746e-016 -1.59028e-015
rhumerus -37.2011 -6.09347 -82.3824
rradius 35.2681
rwrist 4.97447
rhand -19.6139 -8.88497
rfingers 7.12502
rthumb 6.71252 -38.7586
lclavicle -6.95746e-016 -1.59028e-015
lhumerus -35.75 -2.26738 92.7223
lradius 46.0406
lwrist -2.91972
lhand -16.8608 6.12793
lfingers 7.12502
lthumb 9.36962 35.8997
rfemur -18.5444 1.30595 21.429
rtibia 33.8827
rfoot -22.5334 -13.1117
rtoes -17.0693
lfemur -21.6687 -4.31718 -23.6341
ltibia 39.4318
lfoot -25.836 -2.44439
ltoes 8.12221
250
root 0.953693 17.6958 -16.3041 -167.107 -2.32903 -182.067
lowerback 3.74654 -0.601097 -3.24738
upperback -3.84174 -1.01513 1.91249
thorax -6.01589 -0.355857 3.91585
lowerneck -15.8134 -1.41562 -1.81799
upperneck 9.19031 -1.88438 3.02707
head 5.39022 -0.751402 1.07688
rclavicle -1.38155e-014 -1.66979e-014
rhumerus -37.1673 -5.87141 -82.5173
rradius 35.5318
rwrist 4.82967
rhand -19.66 -8.85839
rfingers 7.12502
rthumb 6.66801 -38.7334
lclavicle -1.38155e-014 -1.66979e-014
lhumerus -35.7973 -2.4254 92.8823
lradius 46.1558
lwrist -2.90168
lhand -16.9468 6.00219
lfingers 7.12502
lthumb 9.28666 35.7777
rfemur -18.6198 1.4026 21.4577
rtibia 33.9509
rfoot -22.6827 -13.1082
rtoes -17.1976
lfemur -21.6957 -4.24753 -23.5953
ltibia 39.4624
lfoot -26.0471 -2.33641
ltoes 7.85291
